<svg width="21" height="20" viewBox="0 0 21 20" xmlns="http://www.w3.org/2000/svg">
<path d="M6.21997 0.50937C4.42997 1.61461 3.21997 3.56559 3.21997 5.79529C3.21997 8.02499 4.42997 9.97597 6.24997 11.0812C3.17997 11.0812 0.719971 8.71696 0.719971 5.79529C0.719971 4.39338 1.29943 3.04888 2.33088 2.05758C3.36233 1.06628 4.76128 0.50937 6.21997 0.50937ZM17.79 1.95098L19.22 3.32532L3.64997 18.2893L2.21997 16.9149L17.79 1.95098ZM11.61 4.2864L10.13 3.3926L8.68997 4.35368L9.10997 2.71985L7.71997 1.70111L9.46997 1.58578L10.05 0L10.72 1.56655L12.45 1.59539L11.1 2.6814L11.61 4.2864ZM8.30997 7.75589L7.14997 7.0543L6.02997 7.80394L6.36997 6.53532L5.27997 5.73763L6.63997 5.65113L7.08997 4.41134L7.59997 5.63191L8.95997 5.66074L7.90997 6.49688L8.30997 7.75589ZM17.72 11.5617C17.72 12.9637 17.1405 14.3082 16.1091 15.2995C15.0776 16.2908 13.6787 16.8477 12.22 16.8477C11 16.8477 9.86997 16.4632 8.95997 15.8193L16.65 8.42864C17.32 9.30322 17.72 10.3892 17.72 11.5617ZM13.32 17.8856L16.09 16.7804L15.85 20L13.32 17.8856ZM17.65 15.2907L18.8 12.6285L21 15.0697L17.65 15.2907ZM18.8 10.5238L17.66 7.85199L21 8.08265L18.8 10.5238ZM8.34997 16.7804L11.12 17.8856L8.58997 19.9904L8.34997 16.7804Z" fill="#2B3B48"/>
</svg>
