<svg width="17" height="17" viewBox="0 0 17 17" fill="none" xmlns="http://www.w3.org/2000/svg">
<path d="M12.6087 8.59729C12.6068 7.99967 12.5428 7.40387 12.4176 6.81951H14.0176C13.9352 6.57577 13.8357 6.33814 13.7198 6.1084H12.2309C11.951 5.17332 11.5169 4.29155 10.9464 3.49952C10.582 3.34627 10.202 3.23302 9.81311 3.16174C10.5946 4.0014 11.1845 5.00071 11.542 6.09063H9.14645V3.08618H8.47978V6.09507H6.08423C6.44248 5.00318 7.03393 4.00227 7.81756 3.16174C7.43035 3.23183 7.05185 3.34359 6.68867 3.49507C6.11598 4.28379 5.67887 5.16252 5.39534 6.09507H3.89756C3.77959 6.329 3.67859 6.5711 3.59534 6.81951H5.20867C5.08346 7.40387 5.01942 7.99967 5.01756 8.59729C5.01879 9.25097 5.09333 9.90245 5.23978 10.5395H3.66645C3.75839 10.7886 3.86831 11.0308 3.99534 11.264H5.43089C5.70299 12.1154 6.10636 12.9192 6.62645 13.6462C6.99888 13.8059 7.38794 13.9237 7.78645 13.9973C7.06108 13.2061 6.50323 12.2763 6.14645 11.264H8.48423V14.0817H9.15089V11.264H11.4798C11.1218 12.2767 10.5624 13.2065 9.83534 13.9973C10.2357 13.9211 10.6263 13.8004 10.9998 13.6373C11.519 12.913 11.9224 12.1123 12.1953 11.264H13.6176C13.744 11.0351 13.8539 10.7974 13.9464 10.5528H12.3687C12.5221 9.91212 12.6026 9.2561 12.6087 8.59729ZM8.47978 10.5395H5.92867C5.61577 9.31633 5.60205 8.03579 5.88867 6.80618H8.47978V10.5395ZM11.6976 10.5395H9.14645V6.81951H11.7376C11.8652 7.4034 11.9278 7.99963 11.9242 8.59729C11.9278 9.2515 11.8517 9.90372 11.6976 10.5395Z" fill="#2B3B48"/>
<path d="M8.81314 1.48621C7.4067 1.48621 6.03184 1.90327 4.86242 2.68464C3.693 3.46602 2.78155 4.57663 2.24333 5.87601C1.70511 7.1754 1.56428 8.60521 1.83867 9.98463C2.11305 11.364 2.79032 12.6311 3.78483 13.6256C4.77933 14.6201 6.04641 15.2974 7.42583 15.5718C8.80525 15.8462 10.2351 15.7053 11.5344 15.1671C12.8338 14.6289 13.9444 13.7175 14.7258 12.548C15.5072 11.3786 15.9243 10.0038 15.9243 8.59732C15.9243 6.71133 15.175 4.90259 13.8415 3.569C12.5079 2.23541 10.6991 1.48621 8.81314 1.48621ZM8.81314 14.8195C7.5825 14.8195 6.3795 14.4546 5.35626 13.7709C4.33302 13.0872 3.5355 12.1154 3.06456 10.9785C2.59361 9.8415 2.47039 8.59041 2.71048 7.38342C2.95056 6.17643 3.54317 5.06773 4.41336 4.19754C5.28356 3.32735 6.39225 2.73474 7.59925 2.49465C8.80624 2.25457 10.0573 2.37779 11.1943 2.84873C12.3312 3.31968 13.303 4.1172 13.9867 5.14044C14.6704 6.16367 15.0354 7.36668 15.0354 8.59732C15.0354 10.2476 14.3798 11.8302 13.2129 12.9971C12.046 14.164 10.4634 14.8195 8.81314 14.8195Z" fill="#2B3B48"/>
</svg>
